<svg width="20" height="20" viewBox="0 0 20 20" fill="none" xmlns="http://www.w3.org/2000/svg">
<path d="M11.7273 1.4442L13.4921 4.99336C13.7299 5.4842 14.3682 5.94986 14.9064 6.05055L18.0982 6.57915C20.1384 6.91896 20.614 8.40407 19.1496 9.88917L16.6588 12.3937C16.2457 12.809 16.0079 13.6271 16.1456 14.2186L16.859 17.3147C17.4223 19.7563 16.1206 20.7128 13.9802 19.4291L10.9888 17.6419C10.4506 17.3147 9.54939 17.3147 9.01119 17.6419L6.01972 19.4291C3.8794 20.7002 2.5777 19.7563 3.14094 17.3147L3.85439 14.2186C3.99207 13.6397 3.75426 12.8216 3.34121 12.3937L0.85044 9.88917C-0.613991 8.41665 -0.138368 6.93155 1.90182 6.57915L5.09351 6.05055C5.63172 5.96245 6.27007 5.4842 6.50788 4.99336L8.27272 1.4442C9.21145 -0.481401 10.7635 -0.481401 11.7273 1.4442Z" fill="url(#paint0_linear_1006_869)"/>
<defs>
<linearGradient id="paint0_linear_1006_869" x1="17.6667" y1="2.125" x2="4.66667" y2="18.0833" gradientUnits="userSpaceOnUse">
<stop stop-color="#FFE24D"/>
<stop offset="1" stop-color="#FFBE18"/>
</linearGradient>
</defs>
</svg>
