<svg width="200" height="200" viewBox="0 0 200 200" fill="none" xmlns="http://www.w3.org/2000/svg">
<g filter="url(#filter0_d_3015_121)">
<circle cx="100" cy="96" r="65" fill="white"/>
</g>
<path d="M100 31C64.1037 31 35 60.1037 35 96C35 131.896 64.1037 161 100 161C135.896 161 165 131.896 165 96C165 60.1037 135.896 31 100 31ZM77.8025 67.2754H122.197C130.35 67.2754 135.533 76.0937 131.433 83.2004L104.03 130.677C103.621 131.384 103.033 131.97 102.326 132.377C101.618 132.785 100.816 132.999 100 132.999C99.1837 132.999 98.3818 132.785 97.6745 132.377C96.9672 131.97 96.3794 131.384 95.97 130.677L68.5779 83.2004C64.4721 76.0829 69.645 67.2754 77.8025 67.2754ZM104.041 75.3787V116.437L110.01 104.91L124.397 79.1487C124.617 78.7639 124.732 78.3278 124.729 77.8844C124.727 77.441 124.608 77.0061 124.384 76.6236C124.159 76.2411 123.838 75.9245 123.452 75.706C123.067 75.4874 122.63 75.3745 122.187 75.3787H104.041ZM77.7917 75.3896C77.3492 75.3848 76.9134 75.4969 76.5282 75.7145C76.1429 75.9321 75.822 76.2476 75.5978 76.629C75.3735 77.0104 75.254 77.4443 75.2511 77.8867C75.2483 78.3292 75.3623 78.7645 75.5817 79.1487L89.9792 104.9L95.9483 116.437V75.3896H77.7917Z" fill="#0098EA"/>
<mask id="mask0_3015_121" style="mask-type:alpha" maskUnits="userSpaceOnUse" x="129" y="116" width="66" height="66">
<circle cx="162" cy="149" r="33" fill="#E11A38"/>
</mask>
<g mask="url(#mask0_3015_121)">
<circle cx="157" cy="141" r="20" fill="#E11A38"/>
<path d="M164.918 148.68C164.864 148.777 164.786 148.858 164.693 148.914C164.599 148.97 164.493 149 164.385 149H149.615C149.507 149 149.401 148.97 149.307 148.914C149.214 148.858 149.136 148.777 149.082 148.68C149.028 148.582 149 148.472 149 148.36C149 148.248 149.028 148.137 149.082 148.04C150.254 145.934 152.06 144.424 154.167 143.708C153.124 143.063 152.315 142.08 151.862 140.91C151.409 139.74 151.338 138.448 151.659 137.231C151.981 136.015 152.678 134.943 153.643 134.178C154.607 133.414 155.787 133 157 133C158.213 133 159.392 133.414 160.357 134.178C161.322 134.943 162.018 136.015 162.34 137.231C162.662 138.448 162.591 139.74 162.138 140.91C161.685 142.08 160.875 143.063 159.833 143.708C161.94 144.424 163.746 145.934 164.917 148.04C164.971 148.137 165 148.248 165 148.36C165 148.472 164.972 148.583 164.918 148.68Z" fill="white"/>
</g>
<defs>
<filter id="filter0_d_3015_121" x="0" y="0" width="200" height="200" filterUnits="userSpaceOnUse" color-interpolation-filters="sRGB">
<feFlood flood-opacity="0" result="BackgroundImageFix"/>
<feColorMatrix in="SourceAlpha" type="matrix" values="0 0 0 0 0 0 0 0 0 0 0 0 0 0 0 0 0 0 127 0" result="hardAlpha"/>
<feOffset dy="4"/>
<feGaussianBlur stdDeviation="17.5"/>
<feComposite in2="hardAlpha" operator="out"/>
<feColorMatrix type="matrix" values="0 0 0 0 0 0 0 0 0 0.596078 0 0 0 0 0.917647 0 0 0 0.55 0"/>
<feBlend mode="normal" in2="BackgroundImageFix" result="effect1_dropShadow_3015_121"/>
<feBlend mode="normal" in="SourceGraphic" in2="effect1_dropShadow_3015_121" result="shape"/>
</filter>
</defs>
</svg>
